<svg width="10" height="15" viewBox="0 0 10 15" fill="none" xmlns="http://www.w3.org/2000/svg">
<path d="M5.00011 3.331e-09C5.28509 -2.04505e-05 5.56356 0.0941569 5.79972 0.270426C6.03589 0.446695 6.21896 0.697001 6.32541 0.989168C6.43185 1.28133 6.45681 1.60201 6.39706 1.90998C6.33732 2.21794 6.1956 2.49912 5.99014 2.71737C6.45157 2.93842 6.86587 3.20684 7.23302 3.52026L4.4951 6.54711L4.43582 6.62132C4.32928 6.77322 4.27654 6.96286 4.28749 7.15468C4.29844 7.3465 4.37233 7.52731 4.49529 7.66321C4.61825 7.79912 4.78185 7.88078 4.9554 7.89288C5.12895 7.90498 5.30054 7.84669 5.43798 7.72895L5.50513 7.66342L8.22947 4.65316C8.92735 5.71895 9.28592 7.07684 9.28592 8.68421C9.28592 10.1945 8.44448 11.6226 7.07945 11.8208L6.93659 11.8366L6.78587 11.8421H3.21436C1.69575 11.8421 0.714302 10.3232 0.714302 8.68421C0.714302 5.77895 1.83576 3.74605 4.00938 2.71579C3.80437 2.4974 3.66308 2.21628 3.60365 1.90851C3.54422 1.60075 3.56936 1.28037 3.67583 0.988506C3.78231 0.69664 3.96526 0.446596 4.20122 0.270465C4.43718 0.094333 4.71538 0.000149153 5.00011 3.331e-09ZM5.00011 2.36842V3.15789V2.36842ZM9.28592 12.6316H0.714302C0.524857 12.6316 0.343172 12.7148 0.209214 12.8628C0.0752567 13.0109 0 13.2117 0 13.4211C0 13.8398 0.150513 14.2414 0.418428 14.5375C0.686343 14.8336 1.04971 15 1.4286 15H8.57162C8.92188 15.0001 9.25996 14.858 9.52163 14.6006C9.78329 14.3433 9.95031 13.9887 9.99094 13.6042L9.9988 13.4668C10.0044 13.3595 9.99019 13.252 9.95692 13.151C9.92364 13.05 9.87205 12.9575 9.80531 12.8793C9.73856 12.8011 9.65806 12.7388 9.56875 12.6962C9.47944 12.6536 9.3832 12.6316 9.28592 12.6316Z" fill="#235160"/>
</svg>
