<svg width="30" height="30" viewBox="0 0 30 30" fill="none" xmlns="http://www.w3.org/2000/svg">
<path d="M8.13947 25.3618C9.3835 25.3618 10.4027 26.4027 10.4027 27.6885C10.4027 28.9591 9.3835 30 8.13947 30C6.88045 30 5.86125 28.9591 5.86125 27.6885C5.86125 26.4027 6.88045 25.3618 8.13947 25.3618ZM25.0013 25.3618C26.2454 25.3618 27.2646 26.4027 27.2646 27.6885C27.2646 28.9591 26.2454 30 25.0013 30C23.7423 30 22.7231 28.9591 22.7231 27.6885C22.7231 26.4027 23.7423 25.3618 25.0013 25.3618ZM1.32008 0.0131075L4.8948 0.562652C5.4044 0.656028 5.77911 1.08311 5.82407 1.60357L6.10885 5.03248C6.15382 5.52386 6.54351 5.89124 7.02314 5.89124H27.2649C28.1792 5.89124 28.7787 6.2127 29.3782 6.91685C29.9777 7.621 30.0827 8.63131 29.9478 9.54823L28.5239 19.59C28.2541 21.5203 26.6354 22.9424 24.7318 22.9424H8.37958C6.38614 22.9424 4.73742 21.3826 4.57255 19.362L3.19362 2.67511L0.930388 2.27711C0.330855 2.16995 -0.0888176 1.57296 0.0161007 0.96065C0.121019 0.334568 0.705563 -0.0802691 1.32008 0.0131075ZM22.3337 11.5535H18.1819C17.5524 11.5535 17.0578 12.0587 17.0578 12.7016C17.0578 13.3292 17.5524 13.8497 18.1819 13.8497H22.3337C22.9632 13.8497 23.4578 13.3292 23.4578 12.7016C23.4578 12.0587 22.9632 11.5535 22.3337 11.5535Z" fill="white"/>
</svg>
