<svg width="65" height="30" viewBox="0 0 65 30" fill="none" xmlns="http://www.w3.org/2000/svg">
<path d="M18.1869 10.66C19.8669 10.66 21.0469 11.16 21.7669 12.16C22.1869 12.76 22.3869 13.44 22.3869 14.2C22.3869 15.12 22.1469 15.86 21.6269 16.44C21.3669 16.74 20.9669 17.02 20.4669 17.28C21.2069 17.56 21.7669 17.88 22.1269 18.22C22.7669 18.84 23.0869 19.7 23.0869 20.82C23.0869 21.74 22.7869 22.56 22.2069 23.32C21.3469 24.44 19.9669 25 18.0869 25H12.0269V10.66H18.1869ZM17.4669 16.72C18.2869 16.72 18.9069 16.6 19.3669 16.38C20.0869 16.02 20.4469 15.38 20.4469 14.44C20.4469 13.5 20.0669 12.88 19.3069 12.54C18.8869 12.36 18.2469 12.28 17.3869 12.28H13.9269V16.72H17.4669ZM18.1069 23.34C19.3069 23.34 20.1469 23 20.6669 22.3C20.9869 21.86 21.1469 21.34 21.1469 20.72C21.1469 19.68 20.6669 18.98 19.7469 18.6C19.2469 18.38 18.5869 18.3 17.7869 18.3H13.9269V23.34H18.1069ZM36.9867 25H34.8467L33.4067 20.7H27.7267L26.1667 25H24.1867L29.5867 10.66H31.7867L36.9867 25ZM28.2867 19.12H32.7667L30.5867 12.78L28.2867 19.12ZM49.0266 11.7C50.0266 12.66 50.5866 13.74 50.6866 14.96H48.8066C48.5866 14.04 48.1466 13.3 47.5266 12.76C46.8666 12.22 45.9666 11.96 44.8066 11.96C43.4066 11.96 42.2666 12.46 41.3866 13.44C40.5266 14.44 40.0866 15.96 40.0866 18C40.0866 19.68 40.4866 21.04 41.2666 22.08C42.0466 23.14 43.2266 23.66 44.7666 23.66C46.2066 23.66 47.2866 23.12 48.0466 22.02C48.4466 21.44 48.7466 20.68 48.9266 19.72H50.8266C50.6666 21.24 50.1066 22.5 49.1466 23.52C48.0066 24.76 46.4666 25.38 44.5466 25.38C42.8666 25.38 41.4666 24.86 40.3466 23.86C38.8466 22.52 38.1066 20.46 38.1066 17.68C38.1066 15.56 38.6666 13.82 39.7866 12.48C40.9866 11 42.6666 10.26 44.7866 10.26C46.6066 10.26 48.0266 10.74 49.0266 11.7ZM55.0802 17.64L62.0802 10.66H64.7602L58.7802 16.44L64.9202 25H62.4002L57.3802 17.8L55.0802 20V25H53.1802V10.66H55.0802V17.64Z" fill="#464646"/>
<path d="M5 10L1 17.5L5 25" stroke="#464646" stroke-linecap="round"/>
</svg>
