<svg width="14" height="15" viewBox="0 0 14 15" fill="none" xmlns="http://www.w3.org/2000/svg">
<path d="M3 6.84922C3 5.01102 3 4.09127 3.58599 3.52057C4.17131 2.94922 5.11463 2.94922 6.99993 2.94922H8.9999C10.8852 2.94922 11.8285 2.94922 12.4138 3.52057C12.9998 4.09127 12.9998 5.01102 12.9998 6.84922V10.0992C12.9998 11.9374 12.9998 12.8572 12.4138 13.4279C11.8285 13.9992 10.8852 13.9992 8.9999 13.9992H6.99993C5.11463 13.9992 4.17131 13.9992 3.58599 13.4279C3 12.8572 3 11.9374 3 10.0992V6.84922Z" stroke="#235160"/>
<path d="M2.99997 12.05C2.46954 12.05 1.96084 11.8446 1.58578 11.4789C1.21071 11.1132 1 10.6172 1 10.1V6.2C1 3.74885 1 2.52295 1.78132 1.7618C2.56197 1 3.81929 1 6.33324 1H8.99987C9.53029 1 10.039 1.20545 10.4141 1.57114C10.7891 1.93684 10.9998 2.43283 10.9998 2.95" stroke="#235160"/>
</svg>
